<svg height="1em" viewBox="0 0 1800 1800" width="1em" xmlns="http://www.w3.org/2000/svg">
	<g stroke="currentColor" fill="#fff">
		<path
			d="m467.5 10.000005a.50005006.50005006 0 0 0 -.5.5v15a.50005006.50005006 0 0 0 .5.5h15a.50005006.50005006 0 0 0 .5-.5v-15a.50005006.50005006 0 0 0 -.5-.5zm.5.999999h4v4h-4zm5 0h4v4h-4zm5 0h4v4h-4zm-10 5h4v4.000001h-4zm5 0h4v4.000001h-4zm5 0h4v4.000001h-4zm-10 5.000001h4v4h-4zm5 0h4v4h-4zm5 0h4v4h-4z"
			transform="matrix(100 0 0 100 -46599.99999999999 -900)"
		/>
	</g>
</svg>