<svg height="1em" viewBox="0 0 1600 1600" width="1em"
	xmlns="http://www.w3.org/2000/svg">
	<g fill="currentColor">
		<path d="m30.26575 431.92903c-.27613.00003-.49997.22387-.5.5v13c.00003.27613.22387.49997.5.5h13c.27613-.00003.49997-.22387.5-.5v-9.99219c-.00003-.1326-.0527-.25975-.14648-.35351l-3-3.00782c-.0938-.0938-.22092-.14646-.35352-.14648zm.5 1h2v4.5c.00003.27613.22387.49997.5.5h6c.27613-.00003.49997-.22387.5-.5v-4.5h.29297l2.70703 2.71484v9.28516h-12zm6 0h2v4h-2z" fill-rule="evenodd" transform="matrix(100 0 0 100 -2876.575 -43092.903)"/>
	</g>
</svg>