<svg height="1em" viewBox="0 0 1600 1600" width="1em" xmlns="http://www.w3.org/2000/svg">
	<g fill="#fff">
		<g enable-background="new" transform="matrix(100 0 0 100 -4699.9998 -53500.001)">
			<path
				d="m48.499998 536.00001c-.276131.00003-.499972.22387-.5.5v2c.000028.27613.223869.49997.5.5h4c.276131-.00003.499972-.22387.5-.5v-2c-.000028-.27613-.223869-.49997-.5-.5zm7 6c-.276131.00003-.499972.22387-.5.5v2c.000028.27613.223869.49997.5.5h6c.27613-.00003.49997-.22387.5-.5v-2c-.00003-.27613-.22387-.49997-.5-.5zm0 5c-.276131.00003-.499972.22387-.5.5v2c.000028.27613.223869.49997.5.5h6c.27613-.00003.49997-.22387.5-.5v-2c-.00003-.27613-.22387-.49997-.5-.5z"
			/>
			<path d="m50 540v8.5a.50005.50005 0 0 0 .5.5h3.5v-1h-3v-4h3v-1h-3v-3z" opacity=".6" />
		</g>
	</g>
</svg>