<svg height="1em" viewBox="0 0 1200 1200" width="1em" xmlns="http://www.w3.org/2000/svg">
	<g fill="#fff">
		<path
			d="m282.03125 601c-.56266 0-1.03125.46859-1.03125 1.03125v7.9375c0 .56266.46859 1.03125 1.03125 1.03125h7.9375c.56266 0 1.03125-.46859 1.03125-1.03125v-7.9375c0-.56266-.46859-1.03125-1.03125-1.03125zm6.94922 1.99023a1.0001 1.0001 0 0 1 .72656 1.7168l-4 4a1.0001 1.0001 0 0 1 -1.41406 0l-2-2a1.0001 1.0001 0 1 1 1.41406-1.41406l1.29297 1.29297 3.29297-3.29297a1.0001 1.0001 0 0 1 .6875-.30274z"
			transform="matrix(100 0 0 100 -28000 -60000)"
		/>
	</g>
</svg>