<svg height="1em" viewBox="0 0 1400 1500" width="0.94em"
	xmlns="http://www.w3.org/2000/svg">
	<g fill="currentColor">
		<path d="m283.51233 53.990463c-.12976.0036-.25303.05754-.34375.15039l-3.00563 3.005631c-.19518.195265-.19518.511767 0 .707032l3.00563 2.983534c.47126.490506 1.19754-.235768.70704-.707032l-2.15212-2.130018h5.28213c2.21506 0 4 1.784939 4 4s-1.78494 4-4 4h-1.5c-.67616-.0096-.67616 1.009563 0 1h1.5c2.7555 0 5-2.244499 5-5s-2.2445-5-5-5h-5.28213l2.15212-2.152115c.32527-.318007.0914-.869901-.36329-.857422z" transform="matrix(100 0 0 100 -27901.11 -5299.516)"/>
	</g>
</svg>