<svg height="1em" viewBox="0 0 1600 1600" width="1em"
	xmlns="http://www.w3.org/2000/svg">
	<g fill="currentColor" transform="matrix(100 0 0 100 -46699.979 -61900)">
		<path id="path2" d="m473 628a1.0001 1.0001 0 1 0 0 2h2a1.0001 1.0001 0 1 0 0-2zm-4.5-6a.50005.50005 0 0 0 -.5.5v3a.50005.50005 0 0 0 .5.5h.5v7.5a.50005.50005 0 0 0 .5.5h9a.50005.50005 0 0 0 .5-.5v-5a.50005.50005 0 1 0 -1 0v4.5h-8v-7h3.5a.50005.50005 0 1 0 0-1h-4.5v-2h4.5a.50005.50005 0 1 0 0-1z" opacity=".6"/>
		<path id="path3" d="m478.50003 620.0003c-1.933 0-3.5 1.567-3.5 3.5s1.567 3.5 3.5 3.5 3.5-1.567 3.5-3.5-1.567-3.5-3.5-3.5zm-.5 1h1v2h2v1h-2v2h-1v-2h-2v-1h2z"/>
	</g>
</svg>